<svg width="30" height="31" viewBox="0 0 30 31" fill="none" xmlns="http://www.w3.org/2000/svg">
<g clip-path="url(#clip0_23636_54857)">
<rect x="0.00012207" y="0.179688" width="13" height="30" fill="url(#paint0_linear_23636_54857)"/>
<rect x="17" y="0.179688" width="13" height="30" fill="url(#paint1_linear_23636_54857)"/>
<path d="M22.9688 0.1875H7.03125C3.148 0.1875 0 3.3355 0 7.21875V23.1562C0 27.0395 3.148 30.1875 7.03125 30.1875H22.9688C26.852 30.1875 30 27.0395 30 23.1562V7.21875C30 3.3355 26.852 0.1875 22.9688 0.1875Z" fill="url(#paint2_radial_23636_54857)"/>
<path d="M22.9688 0.1875H7.03125C3.148 0.1875 0 3.3355 0 7.21875V23.1562C0 27.0395 3.148 30.1875 7.03125 30.1875H22.9688C26.852 30.1875 30 27.0395 30 23.1562V7.21875C30 3.3355 26.852 0.1875 22.9688 0.1875Z" fill="url(#paint3_radial_23636_54857)"/>
<path d="M15.0011 3.46875C11.8185 3.46875 11.419 3.4827 10.1691 3.53953C8.92155 3.59672 8.06994 3.79418 7.32487 4.08398C6.55401 4.38328 5.90022 4.78371 5.24889 5.43527C4.59698 6.08672 4.19655 6.74051 3.89631 7.51102C3.60569 8.25633 3.40799 9.10828 3.35186 10.3553C3.29596 11.6053 3.28131 12.0049 3.28131 15.1876C3.28131 18.3703 3.29537 18.7685 3.35209 20.0184C3.40951 21.266 3.60698 22.1176 3.89655 22.8627C4.19608 23.6336 4.59651 24.2873 5.24807 24.9387C5.89928 25.5906 6.55307 25.992 7.32334 26.2913C8.06901 26.5811 8.92073 26.7785 10.1681 26.8357C11.4181 26.8925 11.8172 26.9065 14.9997 26.9065C18.1826 26.9065 18.5808 26.8925 19.8308 26.8357C21.0783 26.7785 21.9309 26.5811 22.6765 26.2913C23.4471 25.992 24.0999 25.5906 24.751 24.9387C25.4029 24.2873 25.8032 23.6336 26.1036 22.863C26.3916 22.1176 26.5894 21.2658 26.648 20.0187C26.7042 18.7688 26.7188 18.3703 26.7188 15.1876C26.7188 12.0049 26.7042 11.6055 26.648 10.3555C26.5894 9.10793 26.3916 8.25645 26.1036 7.51137C25.8032 6.74051 25.4029 6.08672 24.751 5.43527C24.0992 4.78348 23.4473 4.38305 22.6758 4.0841C21.9288 3.79418 21.0767 3.5966 19.8291 3.53953C18.5791 3.4827 18.1811 3.46875 14.9975 3.46875H15.0011ZM13.9498 5.58059C14.2619 5.58012 14.6101 5.58059 15.0011 5.58059C18.1301 5.58059 18.5009 5.59184 19.7365 5.64797C20.8791 5.70023 21.4993 5.89113 21.9124 6.05156C22.4593 6.26391 22.8492 6.51785 23.2591 6.92813C23.6692 7.33828 23.9231 7.72887 24.136 8.27578C24.2964 8.68828 24.4876 9.30844 24.5396 10.451C24.5957 11.6864 24.6079 12.0574 24.6079 15.1849C24.6079 18.3124 24.5957 18.6836 24.5396 19.9188C24.4873 21.0614 24.2964 21.6816 24.136 22.0942C23.9237 22.6411 23.6692 23.0305 23.2591 23.4404C22.8489 23.8506 22.4595 24.1044 21.9124 24.3169C21.4998 24.478 20.8791 24.6684 19.7365 24.7207C18.5012 24.7768 18.1301 24.789 15.0011 24.789C11.872 24.789 11.5011 24.7768 10.2658 24.7207C9.12323 24.668 8.50307 24.4771 8.08963 24.3166C7.54283 24.1042 7.15213 23.8504 6.74198 23.4402C6.33182 23.03 6.07799 22.6404 5.86506 22.0932C5.70463 21.6806 5.5135 21.0605 5.46147 19.9179C5.40533 18.6825 5.39408 18.3115 5.39408 15.182C5.39408 12.0525 5.40533 11.6835 5.46147 10.4481C5.51373 9.30551 5.70463 8.68535 5.86506 8.27227C6.07752 7.72535 6.33182 7.33477 6.74209 6.92461C7.15237 6.51445 7.54283 6.26051 8.08975 6.0477C8.50283 5.88656 9.12323 5.69613 10.2658 5.64363C11.3469 5.59477 11.7658 5.58012 13.9498 5.57766V5.58059ZM21.2566 7.52637C20.4802 7.52637 19.8503 8.15566 19.8503 8.93215C19.8503 9.70852 20.4802 10.3384 21.2566 10.3384C22.033 10.3384 22.6628 9.70852 22.6628 8.93215C22.6628 8.15578 22.033 7.5259 21.2566 7.5259V7.52637ZM15.0011 9.16945C11.6777 9.16945 8.98307 11.8641 8.98307 15.1876C8.98307 18.5112 11.6777 21.2045 15.0011 21.2045C18.3247 21.2045 21.0183 18.5112 21.0183 15.1876C21.0183 11.8642 18.3244 9.16945 15.0009 9.16945H15.0011ZM15.0011 11.2813C17.1584 11.2813 18.9074 13.0301 18.9074 15.1876C18.9074 17.3449 17.1584 19.0939 15.0011 19.0939C12.8438 19.0939 11.0949 17.3449 11.0949 15.1876C11.0949 13.0301 12.8437 11.2813 15.0011 11.2813Z" fill="white"/>
</g>
<defs>
<linearGradient id="paint0_linear_23636_54857" x1="0.650122" y1="1.17969" x2="0.650123" y2="29.6797" gradientUnits="userSpaceOnUse">
<stop stop-color="#406AC9"/>
<stop offset="1" stop-color="#FFAC4D"/>
</linearGradient>
<linearGradient id="paint1_linear_23636_54857" x1="17.65" y1="1.17969" x2="17.65" y2="29.6797" gradientUnits="userSpaceOnUse">
<stop stop-color="#AC31BE"/>
<stop offset="1" stop-color="#E7486F"/>
</linearGradient>
<radialGradient id="paint2_radial_23636_54857" cx="0" cy="0" r="1" gradientUnits="userSpaceOnUse" gradientTransform="translate(7.96875 32.4981) rotate(-90) scale(29.7322 27.6533)">
<stop stop-color="#FFDD55"/>
<stop offset="0.1" stop-color="#FFDD55"/>
<stop offset="0.5" stop-color="#FF543E"/>
<stop offset="1" stop-color="#C837AB"/>
</radialGradient>
<radialGradient id="paint3_radial_23636_54857" cx="0" cy="0" r="1" gradientUnits="userSpaceOnUse" gradientTransform="translate(-5.02512 2.34855) rotate(78.681) scale(13.2905 54.7837)">
<stop stop-color="#3771C8"/>
<stop offset="0.128" stop-color="#3771C8"/>
<stop offset="1" stop-color="#6600FF" stop-opacity="0"/>
</radialGradient>
<clipPath id="clip0_23636_54857">
<rect y="0.179688" width="30" height="30" rx="4" fill="white"/>
</clipPath>
</defs>
</svg>
