<svg xmlns="http://www.w3.org/2000/svg" xmlns:xlink="http://www.w3.org/1999/xlink" width="40" height="40" viewBox="0 0 40 40"><defs><clipPath id="a"><rect width="40" height="40" rx="2" fill="none"/></clipPath></defs><g clip-path="url(#a)"><path d="M30.853,39.387H8.534A8.534,8.534,0,0,1,0,30.853V8.534A8.534,8.534,0,0,1,8.534,0h22.32a8.534,8.534,0,0,1,8.534,8.534v22.32a8.534,8.534,0,0,1-8.534,8.534" transform="translate(0 0.146)" fill="#00b900"/><path d="M44.8,30.9c0-6.417-6.433-11.638-14.341-11.638S16.114,24.488,16.114,30.9c0,5.753,5.1,10.571,11.993,11.482.467.1,1.1.308,1.263.707a2.949,2.949,0,0,1,.046,1.3s-.168,1.012-.2,1.228c-.063.362-.288,1.418,1.242.773s8.259-4.863,11.267-8.326h0A10.354,10.354,0,0,0,44.8,30.9" transform="translate(-10.825 -12.797)" fill="#fff"/><path d="M48.3,45.276H47.291a.279.279,0,0,0-.279.279V51.8a.279.279,0,0,0,.279.279H48.3a.279.279,0,0,0,.279-.279V45.555a.279.279,0,0,0-.279-.279" transform="translate(-31.581 -30.269)" fill="#00b900"/><path d="M60.425,45.276H59.42a.279.279,0,0,0-.279.279v3.712L56.276,45.4a.306.306,0,0,0-.022-.028l0,0-.017-.017,0,0-.015-.012-.007-.006-.014-.01-.009,0-.015-.009-.009,0-.016-.007-.009,0-.016-.006-.01,0-.016,0-.011,0-.015,0h-1.03a.279.279,0,0,0-.279.279V51.8a.279.279,0,0,0,.279.279h1.006a.279.279,0,0,0,.28-.279V48.092l2.867,3.872a.277.277,0,0,0,.071.069l0,0,.017.011.008,0,.013.007.013.006.008,0,.019.006h0a.269.269,0,0,0,.072.01h1.006A.279.279,0,0,0,60.7,51.8V45.555a.279.279,0,0,0-.279-.279" transform="translate(-36.786 -30.269)" fill="#00b900"/><path d="M34.745,50.517H32.012V45.554a.279.279,0,0,0-.279-.279H30.727a.28.28,0,0,0-.28.279V51.8h0a.277.277,0,0,0,.078.193l0,0,0,0a.277.277,0,0,0,.193.078h4.019a.279.279,0,0,0,.279-.279V50.8a.279.279,0,0,0-.279-.279" transform="translate(-20.453 -30.268)" fill="#00b900"/><path d="M80.15,46.841a.279.279,0,0,0,.279-.279V45.556a.279.279,0,0,0-.279-.28H76.131a.278.278,0,0,0-.194.079l0,0,0,0a.279.279,0,0,0-.077.192h0V51.8h0A.277.277,0,0,0,75.93,52l0,0,0,0a.278.278,0,0,0,.193.078H80.15a.279.279,0,0,0,.279-.28V50.8a.279.279,0,0,0-.279-.28H77.417V49.461H80.15a.279.279,0,0,0,.279-.279V48.176a.279.279,0,0,0-.279-.28H77.417V46.841Z" transform="translate(-50.955 -30.269)" fill="#00b900"/></g></svg>