<svg width="16" height="17" viewBox="0 0 16 17" fill="none" xmlns="http://www.w3.org/2000/svg">
<path d="M8 0.109375C6.41775 0.109375 4.87103 0.578567 3.55544 1.45762C2.23985 2.33667 1.21447 3.5861 0.608967 5.04791C0.00346628 6.50971 -0.15496 8.11825 0.153721 9.6701C0.462403 11.2219 1.22433 12.6474 2.34315 13.7662C3.46197 14.885 4.88743 15.647 6.43928 15.9557C7.99113 16.2643 9.59966 16.1059 11.0615 15.5004C12.5233 14.8949 13.7727 13.8695 14.6518 12.5539C15.5308 11.2383 16 9.69162 16 8.10937C15.9978 5.98833 15.1542 3.9548 13.6544 2.45499C12.1546 0.955189 10.121 0.111615 8 0.109375ZM12.3077 8.72476H8C7.83679 8.72476 7.68027 8.65992 7.56486 8.54452C7.44945 8.42911 7.38462 8.27258 7.38462 8.10937V3.80168C7.38462 3.63847 7.44945 3.48195 7.56486 3.36654C7.68027 3.25113 7.83679 3.1863 8 3.1863C8.16321 3.1863 8.31974 3.25113 8.43514 3.36654C8.55055 3.48195 8.61539 3.63847 8.61539 3.80168V7.49399H12.3077C12.4709 7.49399 12.6274 7.55882 12.7428 7.67423C12.8582 7.78964 12.9231 7.94616 12.9231 8.10937C12.9231 8.27258 12.8582 8.42911 12.7428 8.54452C12.6274 8.65992 12.4709 8.72476 12.3077 8.72476Z" fill="black" fill-opacity="0.3"/>
</svg>
